<svg width="305" height="70" viewBox="0 0 305 70" fill="none" xmlns="http://www.w3.org/2000/svg">
<path d="M27.2 30.5L41.51 5.72C39.41 5.27 37.25 5 35 5C27.8 5 21.2 7.55 16.04 11.75L27.02 30.8L27.2 30.5ZM63.62 26C60.86 17.24 54.17 10.22 45.62 6.98L34.64 26H63.62ZM64.4 29H41.93L42.8 30.5L57.08 55.25C62 49.91 65 42.83 65 35C65 32.93 64.79 30.95 64.4 29ZM24.62 35L12.92 14.75C8.03 20.09 5 27.17 5 35C5 37.07 5.21 39.05 5.6 41H28.07L24.62 35ZM6.38 44C9.14 52.76 15.83 59.78 24.38 63.02L35.36 44H6.38ZM40.19 44L28.49 64.28C30.59 64.73 32.75 65 35 65C42.2 65 48.8 62.45 53.96 58.25L42.98 39.2L40.19 44Z" fill="#22E788"/>
<path d="M86.652 31.2599C86.5904 30.5829 86.3165 30.0566 85.8303 29.6811C85.3501 29.2995 84.6638 29.1087 83.7713 29.1087C83.1804 29.1087 82.688 29.1856 82.294 29.3395C81.9001 29.4934 81.6046 29.7057 81.4077 29.9766C81.2107 30.2412 81.1091 30.5459 81.103 30.8906C81.0907 31.1738 81.1461 31.4231 81.2692 31.6385C81.3984 31.8539 81.5831 32.0447 81.8232 32.2109C82.0694 32.371 82.3648 32.5125 82.7095 32.6357C83.0542 32.7588 83.442 32.8665 83.8729 32.9588L85.4979 33.3281C86.4335 33.5312 87.2583 33.8021 87.9723 34.1406C88.6925 34.4792 89.2957 34.8823 89.782 35.3501C90.2744 35.8179 90.6468 36.3565 90.8991 36.9659C91.1515 37.5753 91.2808 38.2585 91.2869 39.0156C91.2808 40.2098 90.9792 41.2346 90.3821 42.0902C89.785 42.9458 88.9264 43.6013 87.8061 44.0568C86.692 44.5123 85.3471 44.7401 83.7713 44.7401C82.1894 44.7401 80.8106 44.5031 79.6349 44.0291C78.4593 43.5552 77.5452 42.835 76.8928 41.8686C76.2403 40.9022 75.9048 39.6804 75.8864 38.2031H80.2628C80.2997 38.8125 80.4628 39.3203 80.7521 39.7266C81.0414 40.1328 81.4384 40.4406 81.9432 40.6499C82.4541 40.8591 83.045 40.9638 83.7159 40.9638C84.3314 40.9638 84.8546 40.8807 85.2855 40.7145C85.7225 40.5483 86.058 40.3175 86.2919 40.022C86.5258 39.7266 86.6458 39.388 86.652 39.0064C86.6458 38.6494 86.535 38.3447 86.3196 38.0923C86.1042 37.8338 85.7718 37.6122 85.3224 37.4276C84.8793 37.2367 84.313 37.0613 83.6236 36.9013L81.6477 36.4396C80.0104 36.0642 78.7209 35.4579 77.7791 34.6207C76.8374 33.7775 76.3696 32.6387 76.3757 31.2045C76.3696 30.035 76.6835 29.0102 77.3175 28.13C77.9515 27.2498 78.8286 26.5634 79.9489 26.071C81.0691 25.5786 82.3464 25.3324 83.7805 25.3324C85.2455 25.3324 86.5166 25.5817 87.5938 26.0803C88.6771 26.5727 89.5173 27.2652 90.1143 28.1577C90.7114 29.0502 91.0161 30.0843 91.0284 31.2599H86.652ZM98.1101 36.4119V44.5H93.5952V25.5909H97.9624V32.9219H98.1193C98.4394 32.0478 98.9626 31.3646 99.6889 30.8722C100.421 30.3797 101.317 30.1335 102.376 30.1335C103.373 30.1335 104.241 30.3551 104.979 30.7983C105.718 31.2353 106.29 31.8539 106.697 32.6541C107.109 33.4543 107.312 34.3899 107.306 35.4609V44.5H102.791V36.3473C102.797 35.5594 102.6 34.9439 102.2 34.5007C101.8 34.0575 101.237 33.8359 100.511 33.8359C100.037 33.8359 99.6181 33.9406 99.255 34.1499C98.898 34.353 98.6179 34.6454 98.4148 35.027C98.2178 35.4086 98.1162 35.8703 98.1101 36.4119ZM119.274 38.3786V30.3182H123.78V44.5H119.477V41.8594H119.33C119.016 42.7273 118.48 43.4167 117.723 43.9276C116.972 44.4323 116.064 44.6847 114.999 44.6847C114.033 44.6847 113.184 44.4631 112.451 44.0199C111.719 43.5767 111.149 42.9581 110.743 42.1641C110.337 41.3639 110.131 40.4283 110.124 39.3572V30.3182H114.639V38.4709C114.646 39.2403 114.849 39.8466 115.249 40.2898C115.649 40.733 116.194 40.9545 116.883 40.9545C117.332 40.9545 117.735 40.8561 118.093 40.6591C118.456 40.456 118.742 40.1636 118.951 39.782C119.167 39.3942 119.274 38.9264 119.274 38.3786ZM134.659 30.3182V33.642H125.712V30.3182H134.659ZM127.586 26.9205H132.101V40.0405C132.101 40.3175 132.144 40.5421 132.23 40.7145C132.323 40.8807 132.455 41.0007 132.627 41.0746C132.8 41.1423 133.006 41.1761 133.246 41.1761C133.418 41.1761 133.6 41.1607 133.791 41.13C133.988 41.093 134.136 41.0623 134.234 41.0376L134.917 44.2969C134.702 44.3584 134.397 44.4354 134.003 44.5277C133.615 44.62 133.151 44.6785 132.609 44.7031C131.55 44.7524 130.642 44.6293 129.885 44.3338C129.134 44.0322 128.559 43.5644 128.159 42.9304C127.765 42.2964 127.574 41.4993 127.586 40.5391V26.9205ZM144.967 30.3182V33.642H136.021V30.3182H144.967ZM137.895 26.9205H142.41V40.0405C142.41 40.3175 142.453 40.5421 142.539 40.7145C142.631 40.8807 142.764 41.0007 142.936 41.0746C143.108 41.1423 143.315 41.1761 143.555 41.1761C143.727 41.1761 143.909 41.1607 144.099 41.13C144.296 41.093 144.444 41.0623 144.543 41.0376L145.226 44.2969C145.01 44.3584 144.706 44.4354 144.312 44.5277C143.924 44.62 143.459 44.6785 142.918 44.7031C141.859 44.7524 140.951 44.6293 140.194 44.3338C139.443 44.0322 138.867 43.5644 138.467 42.9304C138.073 42.2964 137.883 41.4993 137.895 40.5391V26.9205ZM153.748 44.7678C152.264 44.7678 150.984 44.4754 149.907 43.8906C148.836 43.2997 148.011 42.4595 147.433 41.37C146.86 40.2744 146.574 38.9725 146.574 37.4645C146.574 35.9995 146.863 34.7192 147.442 33.6236C148.02 32.5218 148.836 31.6662 149.888 31.0568C150.941 30.4413 152.181 30.1335 153.609 30.1335C154.619 30.1335 155.542 30.2905 156.379 30.6044C157.216 30.9183 157.94 31.383 158.549 31.9986C159.158 32.6141 159.632 33.3743 159.971 34.2791C160.309 35.1778 160.479 36.2088 160.479 37.3722V38.4986H148.153V35.8764H156.278C156.272 35.3963 156.158 34.9685 155.936 34.593C155.714 34.2176 155.41 33.9252 155.022 33.7159C154.64 33.5005 154.2 33.3928 153.702 33.3928C153.197 33.3928 152.745 33.5066 152.344 33.7344C151.944 33.956 151.627 34.2607 151.393 34.6484C151.16 35.0301 151.036 35.464 151.024 35.9503V38.6186C151.024 39.1972 151.138 39.705 151.366 40.142C151.594 40.5729 151.917 40.9084 152.335 41.1484C152.754 41.3885 153.252 41.5085 153.831 41.5085C154.231 41.5085 154.594 41.4531 154.92 41.3423C155.247 41.2315 155.527 41.0684 155.761 40.853C155.995 40.6375 156.17 40.3729 156.287 40.0589L160.433 40.179C160.26 41.1084 159.882 41.9179 159.297 42.6072C158.718 43.2905 157.958 43.8229 157.016 44.2045C156.075 44.58 154.985 44.7678 153.748 44.7678ZM162.785 44.5V30.3182H167.17V32.9034H167.318C167.577 31.9678 167.998 31.2723 168.583 30.8168C169.168 30.3551 169.848 30.1243 170.623 30.1243C170.833 30.1243 171.048 30.1397 171.27 30.1705C171.491 30.1951 171.698 30.2351 171.888 30.2905V34.2145C171.673 34.1406 171.39 34.0821 171.039 34.0391C170.694 33.996 170.386 33.9744 170.116 33.9744C169.58 33.9744 169.097 34.0945 168.666 34.3345C168.241 34.5684 167.906 34.8977 167.66 35.3224C167.42 35.741 167.3 36.2334 167.3 36.7997V44.5H162.785ZM183.404 44.5H178.492L184.872 25.5909H190.957L197.337 44.5H192.425L187.984 30.3551H187.836L183.404 44.5ZM182.749 37.0582H193.016V40.5298H182.749V37.0582ZM205.104 44.7678C203.608 44.7678 202.325 44.46 201.254 43.8445C200.189 43.2289 199.37 42.3733 198.798 41.2777C198.225 40.1759 197.939 38.9018 197.939 37.4553C197.939 36.0026 198.225 34.7285 198.798 33.6328C199.376 32.531 200.198 31.6723 201.263 31.0568C202.334 30.4413 203.611 30.1335 205.095 30.1335C206.406 30.1335 207.548 30.3705 208.52 30.8445C209.499 31.3184 210.262 31.9893 210.81 32.8572C211.364 33.719 211.656 34.7315 211.687 35.8949H207.468C207.381 35.1686 207.135 34.5992 206.729 34.1868C206.329 33.7744 205.806 33.5682 205.159 33.5682C204.636 33.5682 204.177 33.7159 203.784 34.0114C203.39 34.3007 203.082 34.7315 202.86 35.304C202.645 35.8703 202.537 36.572 202.537 37.4091C202.537 38.2462 202.645 38.9541 202.86 39.5327C203.082 40.1051 203.39 40.5391 203.784 40.8345C204.177 41.1238 204.636 41.2685 205.159 41.2685C205.578 41.2685 205.947 41.1792 206.267 41.0007C206.593 40.8222 206.861 40.5606 207.07 40.2159C207.28 39.8651 207.412 39.4403 207.468 38.9418H211.687C211.644 40.1113 211.352 41.133 210.81 42.0071C210.274 42.8812 209.52 43.5613 208.548 44.0476C207.581 44.5277 206.433 44.7678 205.104 44.7678ZM217.995 44.7401C217.091 44.7401 216.287 44.5893 215.586 44.2876C214.89 43.9799 214.339 43.5182 213.933 42.9027C213.533 42.281 213.333 41.5024 213.333 40.5668C213.333 39.7789 213.471 39.1141 213.748 38.5724C214.025 38.0308 214.407 37.5907 214.893 37.2521C215.379 36.9136 215.94 36.6581 216.574 36.4858C217.208 36.3073 217.885 36.1873 218.605 36.1257C219.411 36.0518 220.06 35.9749 220.553 35.8949C221.045 35.8087 221.402 35.6887 221.624 35.5348C221.852 35.3748 221.966 35.1501 221.966 34.8608V34.8146C221.966 34.3407 221.802 33.9744 221.476 33.7159C221.15 33.4574 220.71 33.3281 220.156 33.3281C219.559 33.3281 219.079 33.4574 218.716 33.7159C218.352 33.9744 218.122 34.3314 218.023 34.7869L213.859 34.6392C213.982 33.7775 214.299 33.008 214.81 32.331C215.327 31.6477 216.035 31.1122 216.934 30.7244C217.838 30.3305 218.925 30.1335 220.193 30.1335C221.098 30.1335 221.932 30.2412 222.695 30.4567C223.458 30.666 224.123 30.9737 224.689 31.38C225.256 31.7801 225.693 32.2725 226 32.8572C226.314 33.442 226.471 34.1098 226.471 34.8608V44.5H222.224V42.5241H222.113C221.861 43.0043 221.538 43.4105 221.144 43.7429C220.756 44.0753 220.297 44.3246 219.768 44.4908C219.245 44.657 218.654 44.7401 217.995 44.7401ZM219.39 41.7855C219.876 41.7855 220.313 41.687 220.701 41.4901C221.095 41.2931 221.408 41.0223 221.642 40.6776C221.876 40.3267 221.993 39.9205 221.993 39.4588V38.1108C221.864 38.1785 221.707 38.2401 221.522 38.2955C221.344 38.3509 221.147 38.4032 220.931 38.4524C220.716 38.5017 220.494 38.5447 220.267 38.5817C220.039 38.6186 219.82 38.6525 219.611 38.6832C219.186 38.7509 218.823 38.8556 218.522 38.9972C218.226 39.1387 217.998 39.3234 217.838 39.5511C217.685 39.7727 217.608 40.0374 217.608 40.3452C217.608 40.813 217.774 41.17 218.106 41.4162C218.445 41.6624 218.873 41.7855 219.39 41.7855ZM234.412 44.7031C233.365 44.7031 232.414 44.4323 231.559 43.8906C230.703 43.349 230.02 42.5365 229.509 41.4531C228.998 40.3698 228.743 39.0249 228.743 37.4183C228.743 35.7502 229.007 34.3776 229.537 33.3004C230.066 32.2232 230.758 31.4261 231.614 30.9091C232.476 30.392 233.402 30.1335 234.393 30.1335C235.138 30.1335 235.775 30.2628 236.304 30.5213C236.834 30.7737 237.271 31.0999 237.615 31.5C237.96 31.9001 238.222 32.3156 238.4 32.7464H238.493V25.5909H243.007V44.5H238.539V42.201H238.4C238.209 42.638 237.939 43.0473 237.588 43.429C237.237 43.8106 236.797 44.1184 236.267 44.3523C235.744 44.5862 235.126 44.7031 234.412 44.7031ZM235.981 41.1854C236.529 41.1854 236.997 41.0315 237.385 40.7237C237.772 40.4098 238.071 39.9697 238.28 39.4034C238.489 38.8371 238.594 38.1723 238.594 37.4091C238.594 36.6335 238.489 35.9657 238.28 35.4055C238.077 34.8454 237.779 34.4145 237.385 34.1129C236.997 33.8113 236.529 33.6605 235.981 33.6605C235.421 33.6605 234.947 33.8144 234.559 34.1222C234.172 34.4299 233.876 34.8639 233.673 35.424C233.476 35.9841 233.377 36.6458 233.377 37.4091C233.377 38.1723 233.479 38.8371 233.682 39.4034C233.885 39.9697 234.178 40.4098 234.559 40.7237C234.947 41.0315 235.421 41.1854 235.981 41.1854ZM252.492 44.7678C251.009 44.7678 249.728 44.4754 248.651 43.8906C247.58 43.2997 246.755 42.4595 246.177 41.37C245.604 40.2744 245.318 38.9725 245.318 37.4645C245.318 35.9995 245.607 34.7192 246.186 33.6236C246.765 32.5218 247.58 31.6662 248.633 31.0568C249.685 30.4413 250.925 30.1335 252.354 30.1335C253.363 30.1335 254.286 30.2905 255.123 30.6044C255.961 30.9183 256.684 31.383 257.293 31.9986C257.903 32.6141 258.376 33.3743 258.715 34.2791C259.054 35.1778 259.223 36.2088 259.223 37.3722V38.4986H246.897V35.8764H255.022C255.016 35.3963 254.902 34.9685 254.68 34.593C254.459 34.2176 254.154 33.9252 253.766 33.7159C253.385 33.5005 252.944 33.3928 252.446 33.3928C251.941 33.3928 251.489 33.5066 251.089 33.7344C250.689 33.956 250.372 34.2607 250.138 34.6484C249.904 35.0301 249.781 35.464 249.768 35.9503V38.6186C249.768 39.1972 249.882 39.705 250.11 40.142C250.338 40.5729 250.661 40.9084 251.079 41.1484C251.498 41.3885 251.997 41.5085 252.575 41.5085C252.975 41.5085 253.338 41.4531 253.665 41.3423C253.991 41.2315 254.271 41.0684 254.505 40.853C254.739 40.6375 254.914 40.3729 255.031 40.0589L259.177 40.179C259.004 41.1084 258.626 41.9179 258.041 42.6072C257.462 43.2905 256.702 43.8229 255.76 44.2045C254.819 44.58 253.729 44.7678 252.492 44.7678ZM261.529 44.5V30.3182H265.822V32.9219H265.979C266.275 32.0601 266.773 31.38 267.475 30.8814C268.176 30.3828 269.014 30.1335 269.986 30.1335C270.971 30.1335 271.814 30.3859 272.516 30.8906C273.218 31.3954 273.664 32.0724 273.855 32.9219H274.002C274.267 32.0786 274.784 31.4046 275.554 30.8999C276.323 30.389 277.231 30.1335 278.277 30.1335C279.619 30.1335 280.709 30.5644 281.546 31.4261C282.383 32.2817 282.801 33.4574 282.801 34.9531V44.5H278.287V35.9872C278.287 35.2794 278.105 34.7408 277.742 34.3714C277.379 33.996 276.908 33.8082 276.329 33.8082C275.708 33.8082 275.218 34.0114 274.861 34.4176C274.51 34.8177 274.335 35.3563 274.335 36.0334V44.5H269.995V35.9411C269.995 35.2824 269.817 34.7623 269.46 34.3807C269.103 33.9991 268.632 33.8082 268.047 33.8082C267.653 33.8082 267.306 33.9036 267.004 34.0945C266.702 34.2791 266.465 34.5438 266.293 34.8885C266.127 35.2332 266.044 35.6394 266.044 36.1072V44.5H261.529ZM287.852 49.8182C287.31 49.8182 286.799 49.7751 286.319 49.6889C285.839 49.6089 285.427 49.5012 285.082 49.3658L286.079 46.0881C286.522 46.2358 286.922 46.322 287.279 46.3466C287.643 46.3712 287.953 46.3127 288.212 46.1712C288.477 46.0357 288.68 45.7926 288.821 45.4418L288.997 45.017L283.956 30.3182H288.683L291.296 40.4375H291.444L294.093 30.3182H298.848L293.502 45.8572C293.244 46.6328 292.878 47.3161 292.404 47.907C291.936 48.504 291.33 48.9718 290.585 49.3104C289.846 49.6489 288.935 49.8182 287.852 49.8182Z" fill="#22E788"/>
</svg>
